HIERARCHY
ROOT hip
{
	OFFSET 0.000000 0.000000 0.000000 
	CHANNELS 6 Xposition Yposition Zposition Xrotation Zrotation Yrotation
	JOINT abdomen
	{
		OFFSET 0.000000 3.402643 0.000000 
		CHANNELS 3 Xrotation Zrotation Yrotation
		JOINT chest
		{
			OFFSET 0.000000 8.438565 -0.680529 
			CHANNELS 3 Xrotation Zrotation Yrotation
			JOINT neck
			{
				OFFSET 0.000000 10.207942 -0.272212 
				CHANNELS 3 Xrotation Zrotation Yrotation
				JOINT head
				{
					OFFSET 0.000000 3.130431 0.000000 
					CHANNELS 3 Xrotation Zrotation Yrotation
					End Site
					{
						OFFSET 0.000000 3.130435 0.000000 
					}
				}
			}
			JOINT lCollar
			{
				OFFSET 3.470700 6.669187 -0.816635 
				CHANNELS 3 Yrotation Zrotation Xrotation
				JOINT lShldr
				{
					OFFSET 3.198488 0.000000 0.000000 
					CHANNELS 3 Zrotation Yrotation Xrotation
					JOINT lForeArm
					{
						OFFSET 10.139888 0.000000 0.000000 
						CHANNELS 3 Yrotation Zrotation Xrotation
						JOINT lHand
						{
							OFFSET 8.370511 0.000000 0.000000 
							CHANNELS 3 Zrotation Yrotation Xrotation
							End Site
							{
								OFFSET 4.083176 0.000000 0.000000 
							}
						}
					}
				}
			}
			JOINT rCollar
			{
				OFFSET -3.470700 6.669187 -0.816635 
				CHANNELS 3 Yrotation Zrotation Xrotation
				JOINT rShldr
				{
					OFFSET -3.198488 0.000000 0.000000 
					CHANNELS 3 Zrotation Yrotation Xrotation
					JOINT rForeArm
					{
						OFFSET -10.139888 0.000000 0.000000 
						CHANNELS 3 Yrotation Zrotation Xrotation
						JOINT rHand
						{
							OFFSET -8.370511 0.000000 0.000000 
							CHANNELS 3 Zrotation Yrotation Xrotation
							End Site
							{
								OFFSET -4.083176 0.000000 0.000000 
							}
						}
					}
				}
			}
		}
	}
	JOINT lThigh
	{
		OFFSET 5.308129 -1.633274 1.361059 
		CHANNELS 3 Xrotation Zrotation Yrotation
		JOINT lShin
		{
			OFFSET -2.041588 -20.007561 0.000000 
			CHANNELS 3 Xrotation Zrotation Yrotation
			JOINT lFoot
			{
				OFFSET 0.000000 -19.190928 -1.224953 
				CHANNELS 3 Xrotation Yrotation Zrotation
				End Site
				{
					OFFSET 0.000000 -2.449906 4.627600 
				}
			}
		}
	}
	JOINT rThigh
	{
		OFFSET -5.308129 -1.633274 1.361059 
		CHANNELS 3 Xrotation Zrotation Yrotation
		JOINT rShin
		{
			OFFSET 2.041588 -20.007561 0.000000 
			CHANNELS 3 Xrotation Zrotation Yrotation
			JOINT rFoot
			{
				OFFSET 0.000000 -19.190928 -1.224953 
				CHANNELS 3 Xrotation Yrotation Zrotation
				End Site
				{
					OFFSET 0.000000 -2.449906 4.627600 
				}
			}
		}
	}
}
MOTION
Frames: 8
Frame Time: 0.033333
-0.236774 42.407471 -34.760822 -0.117385 -3.320306 -4.641651 1.389354 -1.316940 -3.376211 -20.839844 0.000000 0.000000 15.243234 19.260235 5.718418 8.586096 -4.084739 0.307924 -4.754608 -0.109225 -0.002657 -14.119655 -5.879284 -35.526096 -30.973686 7.596910 19.337822 -23.684280 2.700123 46.364754 4.754608 0.109225 -0.002676 15.330096 9.134851 -22.869591 2.021728 0.291242 42.191170 11.180969 9.950071 55.400249 -15.430022 2.432375 -13.730989 46.826679 13.287282 -5.345921 -30.231852 15.833562 -2.251117 -17.327126 -3.680852 4.179633 47.963032 -2.584643 7.094101 -34.002907 -0.326918 0.502849 
-0.464275 42.505119 -34.710140 -0.714265 -3.554412 -4.858144 1.164726 -1.287874 -3.365509 -20.839844 0.000000 0.000000 13.241741 17.176189 7.650635 8.586096 -4.084739 0.307924 -4.754608 -0.109225 -0.002657 -15.555136 -8.084273 -32.210300 -36.089340 5.603204 17.905979 -23.549498 0.370680 38.037071 4.754608 0.109225 -0.002676 17.266741 12.554985 -22.353699 2.023789 0.298731 42.279259 11.006190 12.611569 55.300499 -14.438742 3.339902 -13.258163 46.162647 12.994337 -5.566848 -30.147980 15.595347 -2.401869 -16.450310 -3.885853 3.697605 47.824837 -2.105858 7.060222 -35.150311 -0.452858 2.110831 
-0.735584 42.790146 -34.611973 -1.653641 -3.592257 -5.228596 0.854376 -1.179803 -3.249023 -20.839844 0.000000 0.000000 9.759155 13.582755 10.362500 8.586096 -4.084739 0.307924 -4.754608 -0.109225 -0.002657 -17.123188 -10.628073 -28.852854 -40.582783 3.005854 18.239885 -22.437403 -2.013131 33.000969 4.754608 0.109225 -0.002676 19.112413 16.099796 -21.696800 2.033526 0.312303 42.386818 10.749498 15.866707 55.064430 -12.265797 3.798215 -13.302217 44.288284 12.779186 -5.712554 -29.469595 16.236506 -2.322602 -14.508553 -4.159346 3.608680 46.605476 -2.037671 6.015194 -35.897285 -2.744062 3.742471 
-1.054906 43.164894 -34.461544 -2.944682 -3.413467 -5.752563 0.546742 -0.986967 -2.995929 -20.839844 0.000000 0.000000 5.311550 9.195170 13.978497 8.586096 -4.084739 0.307924 -4.754608 -0.109225 -0.002657 -18.443228 -13.589688 -25.361408 -43.837872 -0.227362 21.178293 -19.627470 -4.522755 32.054401 4.754608 0.109225 -0.002676 20.643608 19.599779 -21.003145 2.042331 0.326903 42.455326 10.317080 19.535423 54.627392 -9.307746 4.090118 -13.385235 41.728008 12.346515 -5.722820 -28.545328 17.239944 -2.030129 -11.550848 -4.696462 3.859722 44.782696 -2.516572 2.800575 -35.778088 -8.717449 4.498445 
-1.446561 43.481590 -34.262573 -4.498808 -3.105655 -6.435812 0.250310 -0.715048 -2.645452 -20.839844 0.000000 0.000000 0.560346 5.047979 18.241989 8.586096 -4.084739 0.307924 -4.754608 -0.109225 -0.002657 -19.454248 -16.824982 -21.837023 -46.126972 -3.842641 25.868650 -14.834725 -6.594697 33.646736 4.754608 0.109225 -0.002676 21.803762 22.934326 -20.380737 2.061927 0.348890 42.367378 9.628811 23.447371 53.914661 -6.110974 4.393528 -13.236172 39.339172 11.618578 -5.528871 -27.894863 18.082747 -1.627652 -8.270886 -6.142177 3.220800 43.241314 -2.594502 -1.209211 -34.709972 -14.824368 3.935689 
-1.889918 43.618294 -34.018703 -6.169382 -2.776819 -7.239377 -0.037659 -0.351088 -2.335870 -20.839844 0.000000 0.000000 -3.839849 2.119002 22.488897 8.586096 -4.084739 0.307924 -4.754608 -0.109225 -0.002657 -20.056297 -19.901018 -18.490791 -48.315018 -7.643104 30.608789 -9.042603 -7.675344 35.501484 4.754608 0.109225 -0.002676 22.617231 26.020981 -19.932779 2.083126 0.364146 42.025162 8.638435 27.503910 52.904888 -3.112976 4.587367 -12.957074 37.819046 10.971742 -5.187249 -27.682827 18.679529 -1.489268 -5.463896 -8.332706 1.154561 42.506588 -1.669855 -2.873203 -34.097183 -16.075991 3.800389 
-2.289493 43.568153 -33.742115 -7.800592 -2.525273 -8.121303 -0.338567 0.082312 -2.213449 -20.839844 0.000000 0.000000 -7.315248 0.797474 25.930681 8.586096 -4.084739 0.307924 -4.754608 -0.109225 -0.002657 -20.046068 -22.264610 -15.619055 -51.404205 -11.597524 34.021683 -3.469203 -7.533505 36.377541 4.754608 0.109225 -0.002676 23.179346 28.902885 -19.721832 2.109446 0.373940 41.223419 7.572639 31.553909 51.486435 -0.663314 4.569345 -12.667095 37.516441 10.571558 -4.693353 -27.466309 19.136694 -1.878684 -3.357000 -9.466885 -0.016694 42.301754 -1.217519 -2.411268 -33.764156 -14.929269 4.168991 
-2.626239 43.364410 -33.452873 -9.256171 -2.390377 -9.054255 -0.604739 0.564724 -2.378582 -20.839844 0.000000 0.000000 -9.529778 0.848148 27.938129 8.586096 -4.084739 0.307924 -4.754608 -0.109225 -0.002657 -19.233440 -23.416569 -13.482748 -55.925751 -15.573890 35.372818 1.947040 -6.351842 36.102543 4.754608 0.109225 -0.002676 23.611137 31.580280 -19.726391 2.156434 0.391142 39.893822 6.876776 35.313080 49.746582 1.297437 4.183669 -12.580391 38.186100 10.396928 -3.608980 -27.918507 19.918518 -1.552726 -1.922231 -9.017193 0.835759 42.624557 -1.949941 -1.749233 -33.058018 -14.748697 3.817802 
